<mxfile host="app.diagrams.net" modified="2020-11-20T11:23:06.187Z" agent="5.0 (Macintosh; Intel Mac OS X 10_15_7) AppleWebKit/605.1.15 (KHTML, like Gecko) Version/13.1.3 Safari/605.1.15" etag="8opJipmORPxn7JXaVn_M" version="13.9.9" type="github">
  <diagram id="UUgaOf1F6qNWSPvY_eEi" name="Page-1">
    <mxGraphModel dx="946" dy="662" grid="1" gridSize="10" guides="1" tooltips="1" connect="1" arrows="1" fold="1" page="1" pageScale="1" pageWidth="827" pageHeight="1169" math="0" shadow="0">
      <root>
        <mxCell id="0" />
        <mxCell id="1" parent="0" />
        <mxCell id="LLyH-jrI4SZby10niK_6-6" value="eu-central-1" style="outlineConnect=0;gradientColor=none;html=1;whiteSpace=wrap;fontSize=12;fontStyle=0;shape=mxgraph.aws4.group;grIcon=mxgraph.aws4.group_region;strokeColor=#879196;fillColor=none;verticalAlign=top;align=left;spacingLeft=30;fontColor=#879196;dashed=1;" parent="1" vertex="1">
          <mxGeometry x="94" y="80" width="640" height="580" as="geometry" />
        </mxCell>
        <mxCell id="LLyH-jrI4SZby10niK_6-10" value="eu-central-1a" style="outlineConnect=0;gradientColor=none;html=1;whiteSpace=wrap;fontSize=12;fontStyle=0;shape=mxgraph.aws4.group;grIcon=mxgraph.aws4.group_availability_zone;strokeColor=#545B64;fillColor=none;verticalAlign=top;align=left;spacingLeft=30;fontColor=#545B64;dashed=1;" parent="1" vertex="1">
          <mxGeometry x="104" y="150" width="306" height="500" as="geometry" />
        </mxCell>
        <mxCell id="LLyH-jrI4SZby10niK_6-9" value="eu-central-1b" style="outlineConnect=0;gradientColor=none;html=1;whiteSpace=wrap;fontSize=12;fontStyle=0;shape=mxgraph.aws4.group;grIcon=mxgraph.aws4.group_availability_zone;strokeColor=#545B64;fillColor=none;verticalAlign=top;align=left;spacingLeft=30;fontColor=#545B64;dashed=1;" parent="1" vertex="1">
          <mxGeometry x="420" y="150" width="300" height="500" as="geometry" />
        </mxCell>
        <mxCell id="LLyH-jrI4SZby10niK_6-5" value="VPC 10.0.0.0/16" style="outlineConnect=0;html=1;whiteSpace=wrap;fontSize=12;fontStyle=0;shape=mxgraph.aws4.group;grIcon=mxgraph.aws4.group_vpc;strokeColor=#666666;fillColor=#f5f5f5;verticalAlign=top;align=left;spacingLeft=30;dashed=0;fillOpacity=60;fontColor=#333333;" parent="1" vertex="1">
          <mxGeometry x="114" y="180" width="596" height="460" as="geometry" />
        </mxCell>
        <mxCell id="LLyH-jrI4SZby10niK_6-4" value="Subnet&amp;nbsp;10.0.0.0/21" style="outlineConnect=0;gradientColor=none;html=1;whiteSpace=wrap;fontSize=12;fontStyle=0;shape=mxgraph.aws4.group;grIcon=mxgraph.aws4.group_subnet;strokeColor=#879196;fillColor=none;verticalAlign=top;align=left;spacingLeft=30;fontColor=#879196;dashed=0;" parent="1" vertex="1">
          <mxGeometry x="124" y="280" width="276" height="350" as="geometry" />
        </mxCell>
        <mxCell id="LLyH-jrI4SZby10niK_6-27" style="edgeStyle=orthogonalEdgeStyle;rounded=0;orthogonalLoop=1;jettySize=auto;html=1;exitX=1;exitY=0.5;exitDx=0;exitDy=0;exitPerimeter=0;entryX=0;entryY=0.5;entryDx=0;entryDy=0;entryPerimeter=0;" parent="1" source="LLyH-jrI4SZby10niK_6-2" target="LLyH-jrI4SZby10niK_6-19" edge="1">
          <mxGeometry relative="1" as="geometry" />
        </mxCell>
        <mxCell id="LLyH-jrI4SZby10niK_6-2" value="Internet gateway" style="outlineConnect=0;dashed=0;verticalLabelPosition=bottom;verticalAlign=top;align=center;html=1;shape=mxgraph.aws3.internet_gateway;fillColor=#F58534;gradientColor=none;" parent="1" vertex="1">
          <mxGeometry x="250" y="200" width="28.75" height="30" as="geometry" />
        </mxCell>
        <mxCell id="LLyH-jrI4SZby10niK_6-28" style="edgeStyle=orthogonalEdgeStyle;rounded=0;orthogonalLoop=1;jettySize=auto;html=1;exitX=0.92;exitY=0.5;exitDx=0;exitDy=0;exitPerimeter=0;entryX=0.5;entryY=0;entryDx=0;entryDy=0;entryPerimeter=0;" parent="1" source="LLyH-jrI4SZby10niK_6-12" target="LLyH-jrI4SZby10niK_6-2" edge="1">
          <mxGeometry relative="1" as="geometry" />
        </mxCell>
        <mxCell id="LLyH-jrI4SZby10niK_6-12" value="" style="aspect=fixed;pointerEvents=1;shadow=0;dashed=0;html=1;strokeColor=none;labelPosition=center;verticalLabelPosition=bottom;verticalAlign=top;align=center;fillColor=#00188D;shape=mxgraph.azure.laptop" parent="1" vertex="1">
          <mxGeometry x="124" y="30" width="66.66" height="40" as="geometry" />
        </mxCell>
        <mxCell id="LLyH-jrI4SZby10niK_6-16" value="Subnet&amp;nbsp;10.0.16.0/21" style="outlineConnect=0;gradientColor=none;html=1;whiteSpace=wrap;fontSize=12;fontStyle=0;shape=mxgraph.aws4.group;grIcon=mxgraph.aws4.group_subnet;strokeColor=#879196;fillColor=none;verticalAlign=top;align=left;spacingLeft=30;fontColor=#879196;dashed=0;" parent="1" vertex="1">
          <mxGeometry x="430" y="280" width="270" height="350" as="geometry" />
        </mxCell>
        <mxCell id="LLyH-jrI4SZby10niK_6-23" style="edgeStyle=orthogonalEdgeStyle;rounded=0;orthogonalLoop=1;jettySize=auto;html=1;exitX=0.5;exitY=1;exitDx=0;exitDy=0;exitPerimeter=0;" parent="1" source="LLyH-jrI4SZby10niK_6-19" target="LLyH-jrI4SZby10niK_6-16" edge="1">
          <mxGeometry relative="1" as="geometry" />
        </mxCell>
        <mxCell id="LLyH-jrI4SZby10niK_6-24" style="edgeStyle=orthogonalEdgeStyle;rounded=0;orthogonalLoop=1;jettySize=auto;html=1;exitX=0.5;exitY=1;exitDx=0;exitDy=0;exitPerimeter=0;" parent="1" source="LLyH-jrI4SZby10niK_6-19" target="LLyH-jrI4SZby10niK_6-4" edge="1">
          <mxGeometry relative="1" as="geometry" />
        </mxCell>
        <mxCell id="LLyH-jrI4SZby10niK_6-19" value="Route table public" style="outlineConnect=0;dashed=0;verticalLabelPosition=middle;verticalAlign=middle;align=left;html=1;shape=mxgraph.aws3.route_table;fillColor=#F58536;gradientColor=none;labelPosition=right;" parent="1" vertex="1">
          <mxGeometry x="346" y="204.5" width="23.71" height="21" as="geometry" />
        </mxCell>
        <mxCell id="pr4R7HchG3u1tgUtdXQR-11" value="Cluster" style="fillColor=none;strokeColor=#147EBA;dashed=1;verticalAlign=top;fontStyle=1;fontColor=#147EBA;align=left;" vertex="1" parent="1">
          <mxGeometry x="132" y="315" width="258" height="100" as="geometry" />
        </mxCell>
        <mxCell id="pr4R7HchG3u1tgUtdXQR-12" value="Partition 1" style="fillColor=none;dashed=1;verticalAlign=top;fontStyle=1;align=left;fontColor=#FF3399;strokeColor=#FF3399;" vertex="1" parent="1">
          <mxGeometry x="135" y="425" width="255" height="95" as="geometry" />
        </mxCell>
        <mxCell id="pr4R7HchG3u1tgUtdXQR-13" value="Spread" style="fillColor=none;dashed=1;verticalAlign=top;fontStyle=1;align=left;strokeColor=#00CC00;fontColor=#00CC00;" vertex="1" parent="1">
          <mxGeometry x="135" y="527.5" width="255" height="95" as="geometry" />
        </mxCell>
        <mxCell id="pr4R7HchG3u1tgUtdXQR-14" value="Spread" style="fillColor=none;dashed=1;verticalAlign=top;fontStyle=1;align=right;strokeColor=#00CC00;fontColor=#00CC00;" vertex="1" parent="1">
          <mxGeometry x="440" y="527.5" width="250" height="95" as="geometry" />
        </mxCell>
        <mxCell id="pr4R7HchG3u1tgUtdXQR-15" value="Partition 2" style="fillColor=none;dashed=1;verticalAlign=top;fontStyle=1;align=right;fontColor=#FF3399;strokeColor=#FF3399;" vertex="1" parent="1">
          <mxGeometry x="440" y="425" width="250" height="95" as="geometry" />
        </mxCell>
        <mxCell id="pr4R7HchG3u1tgUtdXQR-3" value="Security Group" style="fontStyle=0;verticalAlign=top;align=center;spacingTop=-2;fillColor=#fff2cc;rounded=0;whiteSpace=wrap;html=1;strokeColor=#d6b656;strokeWidth=2;dashed=1;container=1;collapsible=0;expand=0;recursiveResize=0;" vertex="1" parent="1">
          <mxGeometry x="202" y="433" width="80" height="80" as="geometry" />
        </mxCell>
        <mxCell id="pr4R7HchG3u1tgUtdXQR-4" value="" style="outlineConnect=0;dashed=0;verticalLabelPosition=bottom;verticalAlign=top;align=center;html=1;shape=mxgraph.aws3.ec2;fillColor=#F58534;gradientColor=none;" vertex="1" parent="pr4R7HchG3u1tgUtdXQR-3">
          <mxGeometry x="23.549999999999997" y="36" width="32.9" height="40" as="geometry" />
        </mxCell>
        <mxCell id="pr4R7HchG3u1tgUtdXQR-5" value="Security Group" style="fontStyle=0;verticalAlign=top;align=center;spacingTop=-2;fillColor=#fff2cc;rounded=0;whiteSpace=wrap;html=1;strokeColor=#d6b656;strokeWidth=2;dashed=1;container=1;collapsible=0;expand=0;recursiveResize=0;" vertex="1" parent="1">
          <mxGeometry x="202" y="535" width="80" height="80" as="geometry" />
        </mxCell>
        <mxCell id="pr4R7HchG3u1tgUtdXQR-6" value="" style="outlineConnect=0;dashed=0;verticalLabelPosition=bottom;verticalAlign=top;align=center;html=1;shape=mxgraph.aws3.ec2;fillColor=#F58534;gradientColor=none;" vertex="1" parent="pr4R7HchG3u1tgUtdXQR-5">
          <mxGeometry x="23.549999999999997" y="36" width="32.9" height="40" as="geometry" />
        </mxCell>
        <mxCell id="pr4R7HchG3u1tgUtdXQR-7" value="Security Group" style="fontStyle=0;verticalAlign=top;align=center;spacingTop=-2;fillColor=#fff2cc;rounded=0;whiteSpace=wrap;html=1;strokeColor=#d6b656;strokeWidth=2;dashed=1;container=1;collapsible=0;expand=0;recursiveResize=0;" vertex="1" parent="1">
          <mxGeometry x="450" y="432.5" width="80" height="80" as="geometry" />
        </mxCell>
        <mxCell id="pr4R7HchG3u1tgUtdXQR-8" value="" style="outlineConnect=0;dashed=0;verticalLabelPosition=bottom;verticalAlign=top;align=center;html=1;shape=mxgraph.aws3.ec2;fillColor=#F58534;gradientColor=none;" vertex="1" parent="pr4R7HchG3u1tgUtdXQR-7">
          <mxGeometry x="23.549999999999997" y="36" width="32.9" height="40" as="geometry" />
        </mxCell>
        <mxCell id="pr4R7HchG3u1tgUtdXQR-9" value="Security Group" style="fontStyle=0;verticalAlign=top;align=center;spacingTop=-2;fillColor=#fff2cc;rounded=0;whiteSpace=wrap;html=1;strokeColor=#d6b656;strokeWidth=2;dashed=1;container=1;collapsible=0;expand=0;recursiveResize=0;" vertex="1" parent="1">
          <mxGeometry x="540" y="535" width="80" height="80" as="geometry" />
        </mxCell>
        <mxCell id="pr4R7HchG3u1tgUtdXQR-10" value="" style="outlineConnect=0;dashed=0;verticalLabelPosition=bottom;verticalAlign=top;align=center;html=1;shape=mxgraph.aws3.ec2;fillColor=#F58534;gradientColor=none;" vertex="1" parent="pr4R7HchG3u1tgUtdXQR-9">
          <mxGeometry x="23.549999999999997" y="36" width="32.9" height="40" as="geometry" />
        </mxCell>
        <mxCell id="pr4R7HchG3u1tgUtdXQR-16" value="Security Group" style="fontStyle=0;verticalAlign=top;align=center;spacingTop=-2;fillColor=#fff2cc;rounded=0;whiteSpace=wrap;html=1;strokeColor=#d6b656;strokeWidth=2;dashed=1;container=1;collapsible=0;expand=0;recursiveResize=0;fillOpacity=40;strokeOpacity=40;overflow=hidden;textOpacity=50;" vertex="1" parent="1">
          <mxGeometry x="295" y="432.5" width="80" height="80" as="geometry" />
        </mxCell>
        <mxCell id="pr4R7HchG3u1tgUtdXQR-17" value="" style="outlineConnect=0;dashed=0;verticalLabelPosition=bottom;verticalAlign=top;align=center;html=1;shape=mxgraph.aws3.ec2;fillColor=#F58534;gradientColor=none;fillOpacity=40;" vertex="1" parent="pr4R7HchG3u1tgUtdXQR-16">
          <mxGeometry x="23.549999999999997" y="36" width="32.9" height="40" as="geometry" />
        </mxCell>
        <mxCell id="pr4R7HchG3u1tgUtdXQR-20" value="Security Group" style="fontStyle=0;verticalAlign=top;align=center;spacingTop=-2;fillColor=#fff2cc;rounded=0;whiteSpace=wrap;html=1;strokeColor=#d6b656;strokeWidth=2;dashed=1;container=1;collapsible=0;expand=0;recursiveResize=0;" vertex="1" parent="1">
          <mxGeometry x="202" y="328.25" width="80" height="80" as="geometry" />
        </mxCell>
        <mxCell id="pr4R7HchG3u1tgUtdXQR-21" value="" style="outlineConnect=0;dashed=0;verticalLabelPosition=bottom;verticalAlign=top;align=center;html=1;shape=mxgraph.aws3.ec2;fillColor=#F58534;gradientColor=none;" vertex="1" parent="pr4R7HchG3u1tgUtdXQR-20">
          <mxGeometry x="23.549999999999997" y="36" width="32.9" height="40" as="geometry" />
        </mxCell>
        <mxCell id="pr4R7HchG3u1tgUtdXQR-22" value="Security Group" style="fontStyle=0;verticalAlign=top;align=center;spacingTop=-2;fillColor=#fff2cc;rounded=0;whiteSpace=wrap;html=1;strokeColor=#d6b656;strokeWidth=2;dashed=1;container=1;collapsible=0;expand=0;recursiveResize=0;" vertex="1" parent="1">
          <mxGeometry x="295" y="327.75" width="80" height="80" as="geometry" />
        </mxCell>
        <mxCell id="pr4R7HchG3u1tgUtdXQR-23" value="" style="outlineConnect=0;dashed=0;verticalLabelPosition=bottom;verticalAlign=top;align=center;html=1;shape=mxgraph.aws3.ec2;fillColor=#F58534;gradientColor=none;" vertex="1" parent="pr4R7HchG3u1tgUtdXQR-22">
          <mxGeometry x="23.549999999999997" y="36" width="32.9" height="40" as="geometry" />
        </mxCell>
        <mxCell id="pr4R7HchG3u1tgUtdXQR-24" value="Security Group" style="fontStyle=0;verticalAlign=top;align=center;spacingTop=-2;fillColor=#fff2cc;rounded=0;whiteSpace=wrap;html=1;strokeColor=#d6b656;strokeWidth=2;dashed=1;container=1;collapsible=0;expand=0;recursiveResize=0;fillOpacity=40;strokeOpacity=40;overflow=hidden;textOpacity=50;" vertex="1" parent="1">
          <mxGeometry x="540" y="432.5" width="80" height="80" as="geometry" />
        </mxCell>
        <mxCell id="pr4R7HchG3u1tgUtdXQR-25" value="" style="outlineConnect=0;dashed=0;verticalLabelPosition=bottom;verticalAlign=top;align=center;html=1;shape=mxgraph.aws3.ec2;fillColor=#F58534;gradientColor=none;fillOpacity=40;" vertex="1" parent="pr4R7HchG3u1tgUtdXQR-24">
          <mxGeometry x="23.549999999999997" y="36" width="32.9" height="40" as="geometry" />
        </mxCell>
      </root>
    </mxGraphModel>
  </diagram>
</mxfile>
